# xmcd
#
# Track frame offsets:
#	150
#	16658
#	35114
#	58626
#	73087
#	89895
#	106802
#	121273
#	139322
#	154204
#
# Disc length: 2269 seconds
#
# Revision: 1
# Processed by: cddbd v1.5.2PL0 Copyright (c) Steve Scherf et al.
# Submitted via: audiograbber 1.83.01
#
DISCID=8c08db0a
DTITLE=Mean Mary - Walk a Little Ways With Me
DYEAR=1900
DGENRE=Country
TTITLE0=Big Red Barn
TTITLE1=Shepherd's Hill
TTITLE2=Rose Tattoo
TTITLE3=Where Were You
TTITLE4=Fugitive
TTITLE5=Ballad of the Wildwood
TTITLE6=Walk a Little Ways
TTITLE7=Choctawhatchee Waltz
TTITLE8=Joy
TTITLE9=Rough Road Ahead
EXTD=
EXTT0=
EXTT1=
EXTT2=
EXTT3=
EXTT4=
EXTT5=
EXTT6=
EXTT7=
EXTT8=
EXTT9=
PLAYORDER=
